<svg width="253" height="77" viewBox="0 0 253 77" fill="none" xmlns="http://www.w3.org/2000/svg">
<path d="M87.375 66.9518C83.6463 66.9518 80.4785 65.417 77.8717 62.3472C75.2319 59.2775 73.912 55.5668 73.912 51.2152C73.912 46.8636 75.2319 43.1361 77.8717 40.0326C80.4785 36.9629 83.6463 35.428 87.375 35.428C90.4438 35.428 93.0342 36.2714 95.146 37.958C97.2579 39.611 98.5613 41.8374 99.0562 44.6372H97.0764C96.7134 42.5458 95.608 40.8085 93.7601 39.4254C91.9452 38.0424 89.8169 37.3508 87.375 37.3508C84.2073 37.3508 81.5015 38.7002 79.2576 41.3988C77.0138 44.1312 75.8918 47.4034 75.8918 51.2152C75.8918 55.0271 77.0138 58.2992 79.2576 61.0316C81.5015 63.7303 84.2073 65.0796 87.375 65.0796C90.0809 65.0796 92.3082 64.27 94.0571 62.6508C95.839 61.0316 96.8454 58.8727 97.0764 56.174H99.0562C98.7923 59.4462 97.5878 62.0605 95.443 64.017C93.3311 65.9736 90.6418 66.9518 87.375 66.9518Z" fill="black"/>
<path d="M110.607 66.547C107.604 66.547 105.212 65.535 103.43 63.511C101.615 61.487 100.708 58.7884 100.708 55.415C100.708 51.9405 101.615 49.1406 103.43 47.0154C105.212 44.924 107.604 43.8782 110.607 43.8782C113.577 43.8782 115.969 44.924 117.784 47.0154C119.566 49.1406 120.457 51.9405 120.457 55.415C120.457 58.7884 119.566 61.487 117.784 63.511C115.969 65.535 113.577 66.547 110.607 66.547ZM110.607 64.8772C112.983 64.8772 114.897 64.017 116.349 62.2966C117.768 60.5762 118.477 58.2824 118.477 55.415C118.477 52.4465 117.768 50.0852 116.349 48.331C114.897 46.5432 112.983 45.6492 110.607 45.6492C108.198 45.6492 106.284 46.5432 104.866 48.331C103.414 50.0852 102.688 52.4465 102.688 55.415C102.688 58.2824 103.414 60.5762 104.866 62.2966C106.284 64.017 108.198 64.8772 110.607 64.8772Z" fill="black"/>
<path d="M126.31 66.1928H124.33V36.187H126.31V66.1928Z" fill="black"/>
<path d="M133.499 66.1928H131.519V36.187H133.499V66.1928Z" fill="black"/>
<path d="M146.825 66.9518C143.987 66.9518 141.71 65.9061 139.994 63.8146C138.278 61.6894 137.42 58.8896 137.42 55.415C137.42 51.9405 138.278 49.1406 139.994 47.0154C141.71 44.924 143.987 43.8782 146.825 43.8782C149.662 43.8782 151.939 44.8396 153.655 46.7624C155.371 48.6852 156.229 51.249 156.229 54.4536V55.415H139.4C139.4 58.3498 140.077 60.6943 141.429 62.4484C142.782 64.2026 144.581 65.0796 146.825 65.0796C148.507 65.0796 150.025 64.6242 151.378 63.7134C152.764 62.7689 153.721 61.5376 154.249 60.0196H156.229C155.899 62.0099 154.843 63.6628 153.061 64.9784C151.279 66.294 149.2 66.9518 146.825 66.9518ZM139.4 53.4922H154.249V52.7332C154.084 50.743 153.292 49.0563 151.873 47.6732C150.421 46.3239 148.738 45.6492 146.825 45.6492C144.911 45.6492 143.244 46.3408 141.825 47.7238C140.374 49.1406 139.565 50.8779 139.4 52.9356V53.4922Z" fill="black"/>
<path d="M167.519 73.884C165.011 73.884 162.883 73.2094 161.134 71.86C159.352 70.477 158.461 68.824 158.461 66.9012H160.342C160.342 68.3518 161.035 69.5999 162.421 70.6456C163.84 71.6576 165.539 72.1636 167.519 72.1636C169.697 72.1636 171.429 71.5733 172.716 70.3926C174.036 69.212 174.696 67.6265 174.696 65.6362V61.234C174.069 62.6508 173.112 63.764 171.825 64.5736C170.505 65.417 169.086 65.8386 167.568 65.8386C164.797 65.8386 162.586 64.8435 160.936 62.8532C159.253 60.8292 158.412 58.1643 158.412 54.8584C158.412 51.5526 159.253 48.8876 160.936 46.8636C162.586 44.8734 164.797 43.8782 167.568 43.8782C169.185 43.8782 170.654 44.3168 171.974 45.1938C173.261 46.0709 174.168 47.2347 174.696 48.6852V44.6372H176.676V65.6868C176.676 68.2843 175.867 70.2914 174.25 71.7082C172.667 73.1588 170.423 73.884 167.519 73.884ZM167.568 64.27C169.548 64.27 171.231 63.3592 172.617 61.5376C174.003 59.6823 174.696 57.4559 174.696 54.8584C174.696 52.261 174.003 50.0346 172.617 48.1792C171.231 46.3576 169.548 45.4468 167.568 45.4468C165.391 45.4468 163.658 46.307 162.371 48.0274C161.051 49.7478 160.391 52.0248 160.391 54.8584C160.391 57.692 161.051 59.969 162.371 61.6894C163.658 63.4098 165.391 64.27 167.568 64.27Z" fill="black"/>
<path d="M189.996 66.9518C187.158 66.9518 184.881 65.9061 183.165 63.8146C181.449 61.6894 180.591 58.8896 180.591 55.415C180.591 51.9405 181.449 49.1406 183.165 47.0154C184.881 44.924 187.158 43.8782 189.996 43.8782C192.833 43.8782 195.11 44.8396 196.826 46.7624C198.542 48.6852 199.4 51.249 199.4 54.4536V55.415H182.571C182.571 58.3498 183.248 60.6943 184.601 62.4484C185.953 64.2026 187.752 65.0796 189.996 65.0796C191.679 65.0796 193.196 64.6242 194.549 63.7134C195.935 62.7689 196.892 61.5376 197.42 60.0196H199.4C199.07 62.0099 198.014 63.6628 196.232 64.9784C194.45 66.294 192.372 66.9518 189.996 66.9518ZM182.571 53.4922H197.42V52.7332C197.255 50.743 196.463 49.0563 195.044 47.6732C193.592 46.3239 191.91 45.6492 189.996 45.6492C188.082 45.6492 186.415 46.3408 184.997 47.7238C183.545 49.1406 182.736 50.8779 182.571 52.9356V53.4922Z" fill="black"/>
<path fill-rule="evenodd" clip-rule="evenodd" d="M108.15 15.7288C107.96 24.9623 115.212 31.585 123.864 31.776C131.307 32.0307 139.896 26.6816 140.15 16.4293C140.341 6.24058 132.134 0.70048 124.755 0.573121C114.194 0.254724 108.405 8.46936 108.15 15.7288ZM112.985 15.6015C112.985 7.38682 117.566 2.54719 124.182 2.54719C130.862 2.54719 135.315 8.02362 135.251 16.684C135.251 24.7076 130.862 29.8019 124.245 29.8019C118.774 29.8019 112.985 25.4081 112.985 15.6015Z" fill="black"/>
<path d="M250.972 1.46462V1.01886H242.32V1.46462C244.038 1.59197 244.483 1.91037 244.483 4.33018V14.901H228.961V4.33018C228.961 1.91037 229.406 1.52829 231.124 1.46462V1.01886H222.472V1.46462C224.189 1.59197 224.635 1.91037 224.635 4.33018V28.0189C224.635 30.4387 224.189 30.8208 222.472 30.8845V31.3302H231.124V30.8845C229.406 30.7571 228.961 30.4387 228.961 28.0189V16.7477H244.483V28.0826C244.483 30.5024 244.038 30.8845 242.32 30.9481V31.3939H250.972V30.9481C249.255 30.8208 248.809 30.5024 248.809 28.0826V4.39386C248.809 1.91037 249.255 1.59197 250.972 1.46462Z" fill="black"/>
<path d="M142.441 1.01886V1.46462C144.095 1.52829 144.604 1.71933 144.604 3.50235V28.0826C144.604 30.5024 144.158 30.8845 142.441 30.9481V31.3939H148.993V30.9481C147.276 30.8208 146.83 30.5024 146.83 28.0826V5.98585C146.83 6.36792 163.689 26.9363 167.379 31.3939H168.079V3.50235C168.079 1.71933 168.524 1.59197 170.242 1.46462V1.01886H163.816V1.46462C165.47 1.52829 165.979 1.71933 165.979 3.50235V22.7972L148.166 1.01886H142.441Z" fill="black"/>
<path fill-rule="evenodd" clip-rule="evenodd" d="M184.364 1.01886H184.937L196.833 28.9741C197.533 30.6297 197.851 30.8845 198.869 30.9481V31.3939H190.79V30.9481C191.617 30.9481 192.38 30.8845 192.38 30.0566C192.38 29.7626 192.109 29.0884 191.967 28.7362C191.955 28.707 191.945 28.68 191.935 28.6557C191.426 27.5731 190.408 25.1533 189.263 22.3514H177.748C176.285 25.6628 175.14 28.6557 174.949 29.1651C174.822 29.4835 174.758 29.8019 174.758 30.0566C174.822 30.9481 175.84 30.9481 176.285 30.9481V31.3939H170.496V30.9481C170.543 30.9402 170.591 30.9332 170.639 30.9262C170.973 30.8775 171.307 30.8287 171.641 30.4387C172.15 29.8656 172.849 28.2736 173.295 27.2547C174.913 23.3769 178.638 14.5658 181.384 8.07276C182.741 4.86294 183.859 2.21962 184.364 1.01886ZM183.41 7.95986C183.41 7.95986 180.42 15.6014 178.448 20.441H188.436C186.146 14.8372 183.41 7.95986 183.41 7.95986Z" fill="black"/>
<path d="M72.8425 1.01886V1.46462C73.7968 1.52829 74.3057 1.59197 74.6238 1.97405C74.6874 2.10141 74.8146 2.29245 74.8783 2.4198V2.4198C74.9419 2.54716 74.9419 2.7382 74.9419 2.92924C74.9419 3.12028 74.9419 3.31132 74.9419 3.50235V28.0826C74.9419 30.5024 74.4966 30.8845 72.7789 30.9481V31.3939H79.2679V30.9481C77.5502 30.8208 77.1049 30.5024 77.1049 28.0826V7.00472C77.1049 6.62264 77.0413 5.85849 77.0413 5.85849L77.423 7.00472L87.9199 31.2665H88.5561L99.2439 6.30424L99.562 5.28537C99.562 5.28537 99.4984 5.79481 99.4984 6.24056V28.0826C99.4984 30.5024 99.0531 30.8845 97.3354 30.9481V31.3939H105.987V30.9481C104.27 30.8208 103.824 30.5024 103.824 28.0826V3.50235C103.824 1.71933 104.27 1.59197 105.987 1.46462V1.01886H99.2439L89.574 23.9434L79.7768 1.01886L72.8425 1.01886Z" fill="black"/>
<path d="M200.333 29.3562C202.368 30.5661 205.358 31.8397 208.603 31.8397C208.666 31.8397 208.73 31.8397 208.794 31.8397C213.501 31.776 218.527 28.2736 218.527 22.7335C218.527 16.7477 214.328 15.3467 210.13 13.1816C205.867 11.0802 204.086 9.99768 204.086 7.19579C204.086 5.28541 205.231 2.48352 209.048 2.48352C210.257 2.48352 211.338 2.80192 212.229 3.24767C215.283 4.96702 215.474 7.38683 215.855 8.91513H216.301L216.046 2.16512C214.074 1.33729 212.547 0.955218 211.466 0.827859C210.829 0.76418 210.193 0.7005 209.684 0.7005C205.422 0.7005 200.46 3.24767 200.46 8.59674C200.46 12.2265 202.623 14.5189 206.949 16.684C211.211 18.8491 214.456 19.7406 214.456 24.0071C214.456 26.1722 213.183 29.993 208.412 29.993C206.503 29.993 204.977 29.3562 203.768 28.3373C200.905 25.6628 200.969 23.4977 200.778 22.6699H200.333L200.333 29.3562" fill="black"/>
<path fill-rule="evenodd" clip-rule="evenodd" d="M14.952 47.9168C8.68252 37.5844 8.69813 27.5012 8.70056 25.93L8.70064 25.8548V1.01886H57.0356V25.8548L57.0357 25.93C57.0381 27.5012 57.0537 37.5844 50.7843 47.9168C45.113 57.4641 36.5416 61.6572 32.8681 62.9474C29.2591 61.6572 20.6877 57.4641 14.952 47.9168ZM44.6615 15.7914H45.1771V8.05034C45.1771 7.14721 45.1126 6.05056 44.6615 4.95391V15.7914ZM26.8099 11.8563C26.0365 11.7918 25.3276 11.6628 24.6832 11.4693C23.9098 11.2757 23.1364 11.0822 22.4275 11.1467C21.9764 11.1467 21.5897 11.2112 21.3319 11.3403V10.7597C21.6542 10.6307 22.0408 10.5661 22.4275 10.5661C23.1454 10.5661 23.8632 10.7329 24.6326 10.9116L24.812 10.9532C25.4565 11.1467 26.1654 11.2757 26.8099 11.3403V11.8563ZM18.432 11.0822C18.8831 11.0822 19.2698 11.1467 19.5276 11.2758V10.6952C19.2054 10.5662 18.8187 10.5016 18.432 10.5016C17.7142 10.5016 16.9963 10.6684 16.227 10.8471L16.0475 10.8887C15.403 11.0822 14.7585 11.2112 14.0496 11.2758V11.7918C14.7585 11.7273 15.4675 11.5983 16.1764 11.4048C16.4396 11.3642 16.69 11.3173 16.9318 11.2721L16.9318 11.2721C17.4596 11.1733 17.9458 11.0822 18.432 11.0822ZM19.3863 9.94833C19.1374 9.88119 18.8069 9.79206 18.432 9.79206C17.7975 9.73433 17.163 9.8833 16.4361 10.054C16.3508 10.074 16.2643 10.0943 16.1764 10.1146C15.4675 10.3081 14.823 10.4372 14.0496 10.5017V9.98559C14.7585 9.92108 15.403 9.79206 16.0475 9.59854L16.2269 9.55693C16.9963 9.37822 17.7142 9.21148 18.432 9.21148C18.5562 9.2322 18.6804 9.24627 18.8025 9.26009L18.8025 9.26009C19.0604 9.2893 19.3089 9.31744 19.5276 9.40501V9.98559C19.4841 9.9747 19.4369 9.96196 19.3863 9.94833ZM18.432 12.437C18.8831 12.437 19.2698 12.5015 19.5276 12.6305V12.05C19.3089 11.9624 19.0604 11.9343 18.8025 11.905L18.8025 11.905C18.6804 11.8912 18.5562 11.8772 18.432 11.8564C17.7142 11.8564 16.9963 12.0232 16.2269 12.2019L16.0475 12.2435C15.403 12.437 14.7585 12.566 14.0496 12.6305V13.1466C14.5652 13.1036 15.0235 13.0033 15.4818 12.9029C15.7109 12.8527 15.9401 12.8026 16.1764 12.7596C16.2643 12.7392 16.3508 12.7189 16.4361 12.6989C17.163 12.5282 17.7975 12.3793 18.432 12.437ZM19.3863 8.59366C19.1374 8.52652 18.807 8.4374 18.432 8.4374C17.9458 8.4374 17.4596 8.52843 16.9318 8.62725C16.69 8.67252 16.4396 8.71941 16.1764 8.75994C15.4675 8.95347 14.7585 9.08249 14.0496 9.147V8.63092C14.7585 8.56642 15.403 8.4374 16.0475 8.24387L16.227 8.20226C16.9963 8.02355 17.7142 7.85682 18.432 7.85682C18.8187 7.85682 19.2054 7.92133 19.5276 8.05034V8.63092C19.4841 8.62004 19.4369 8.60732 19.3864 8.59369L19.3863 8.59366ZM26.5521 44.9494L27.8411 45.9816L26.1655 46.3686V48.0459L24.8765 47.0137L23.5231 48.0459V46.3686L21.912 45.9816L23.2009 44.9494L22.492 43.4012L24.1032 43.7238L24.8765 42.2401L25.5854 43.7238L27.261 43.4012L26.5521 44.9494ZM34.7369 56.4965L36.3481 55.7224L34.7369 55.0128L35.3169 53.3355L33.6413 53.9806L32.9324 52.3679L32.2235 53.9161L30.5479 53.271L31.1923 54.9483L29.5812 55.6579L31.1923 56.432L30.5479 58.1092L32.2235 57.4641L32.9324 59.0768L33.6413 57.4641L35.3169 58.1092L34.7369 56.4965ZM29.9031 38.3696L31.192 37.2729L30.4831 35.7247L32.1587 36.0472L32.8676 34.5635L33.5765 36.0472L35.2521 35.7247L34.5432 37.2729L35.8321 38.3696L34.221 38.7566L34.1565 40.4338L32.8032 39.4017L31.5142 40.4338V38.7566L29.9031 38.3696ZM36.8637 47.8523L37.8304 46.8202L36.4126 46.5622L35.7681 45.272L35.1236 46.5622L33.7058 46.8202L34.737 47.8523L34.4792 49.2715L35.7681 48.6264L37.057 49.2715L36.8637 47.8523ZM42.4059 41.4659L41.6326 42.7561L42.4059 44.0463H40.9236L40.2147 45.3364L39.5058 44.0463H38.0235L38.7969 42.7561L38.0235 41.4659H39.5058L40.2147 40.1757L40.9236 41.4659H42.4059ZM52.9751 11.6628C52.5884 11.8563 52.2662 12.1789 52.0728 12.5659C51.8795 12.8885 51.815 13.211 51.815 13.5336V13.7916L52.3951 13.4045C52.4595 13.34 52.5239 13.2594 52.5884 13.1787C52.6528 13.0981 52.7173 13.0175 52.7817 12.953C52.9106 12.6949 52.9751 12.3079 52.9751 11.9853V11.6628ZM49.2375 19.275C48.7864 19.3395 48.3352 19.275 47.9486 19.0814C48.2708 18.8234 48.6575 18.5654 49.1086 18.5008C49.5597 18.4363 49.9464 18.5008 50.3331 18.6944C50.0109 19.0169 49.6886 19.2104 49.2375 19.275ZM47.9483 18.3718C48.1416 18.0492 48.2705 17.6622 48.2705 17.2751V17.1461C47.8839 17.3396 47.5616 17.5977 47.3038 17.9202C47.1105 18.2427 46.9816 18.6298 46.9816 19.0168V19.1459C47.4327 19.0168 47.755 18.7588 47.9483 18.3718ZM48.7213 18.1782C48.6569 18.2427 48.5924 18.2427 48.4635 18.2427C48.5924 17.8557 48.6569 17.4041 48.6569 16.8235C48.7858 16.5655 48.9791 16.372 49.2369 16.1785L49.2369 16.1785C49.3013 16.372 49.3658 16.5655 49.3658 16.759C49.3658 16.9526 49.3013 17.2106 49.2369 17.4041C49.108 17.7267 48.9791 17.9847 48.7213 18.1782ZM49.6882 17.2106C49.8171 17.2106 49.8815 17.1461 49.946 17.0816C50.1393 16.8235 50.2038 16.5655 50.2682 16.243V16.0494C50.2682 15.7269 50.1393 15.3398 49.946 15.0173C49.7526 15.2753 49.5593 15.5334 49.4949 15.7914C49.6882 16.372 49.7526 16.759 49.6882 17.2106ZM50.8481 15.7269C50.7837 15.8559 50.7192 15.9204 50.5903 15.9204C50.5259 15.4689 50.397 15.0818 50.2036 14.5658C50.2036 14.3077 50.2681 13.9852 50.397 13.7271C50.7192 14.0497 50.9126 14.4367 50.977 14.8238V15.0818C50.977 15.3399 50.9126 15.5334 50.8481 15.7269ZM51.2353 14.4368C51.3359 14.3864 51.358 14.336 51.3935 14.255C51.4035 14.2322 51.4145 14.207 51.4286 14.1787V14.0497C51.4286 13.7917 51.3642 13.5336 51.2997 13.2756C51.1708 12.8885 50.8486 12.6305 50.4619 12.3725C50.3975 12.5015 50.3975 12.695 50.3975 12.824C50.3975 12.9531 50.3975 13.0821 50.4619 13.2111C50.8486 13.6627 51.1064 14.0497 51.2353 14.4368ZM51.6221 12.6305C51.6221 12.695 51.5576 12.824 51.4932 12.8885C51.2354 12.5014 50.9132 12.1789 50.462 11.9854C50.3331 11.7273 50.2687 11.4048 50.2687 11.0823C50.7198 11.2113 51.0421 11.4693 51.2999 11.7918C51.4932 12.0499 51.5576 12.3079 51.6221 12.6305ZM51.4285 11.0178C51.2997 10.6952 51.1708 10.4372 50.913 10.2437C50.5907 9.98562 50.2685 9.8566 49.8174 9.79209C49.8818 10.1146 50.0107 10.3727 50.2041 10.5662C50.6552 10.6952 51.0419 10.9533 51.3641 11.2113H51.4285V11.0178ZM50.8804 9.63079C50.8965 9.67918 50.9126 9.72756 50.9126 9.79207C50.5259 9.53403 50.0748 9.40501 49.5592 9.40501C49.3714 9.26406 49.2521 9.08887 49.1264 8.90439L49.1263 8.90436C49.0795 8.83558 49.0317 8.7655 48.9792 8.69542C49.4303 8.63091 49.817 8.69542 50.2037 8.88894C50.4615 9.01796 50.6548 9.21149 50.8481 9.46952C50.8481 9.53403 50.8643 9.58241 50.8804 9.63079ZM50.655 18.0492C51.0416 17.9202 51.3639 17.5976 51.6217 17.2106C51.1705 17.1461 50.7194 17.1461 50.3327 17.2751C50.0105 17.4041 49.6883 17.7267 49.4305 18.0492C49.6238 18.0492 49.8816 18.1137 50.0749 18.1782C50.2683 18.1782 50.4616 18.1782 50.655 18.0492ZM52.5239 15.4688C52.3306 15.9204 52.0728 16.3075 51.7506 16.5655C51.6217 16.6945 51.4284 16.759 51.235 16.759C51.0417 16.759 50.7839 16.759 50.5905 16.8235C50.7194 16.4365 50.9772 16.1139 51.2995 15.8559C51.6217 15.5979 52.0728 15.4688 52.5239 15.4688ZM52.9104 13.5981C52.5237 13.7271 52.1371 13.9207 51.8148 14.2432C51.557 14.5658 51.4282 14.9528 51.3637 15.4044C51.557 15.3399 51.7504 15.2754 52.0082 15.2109C52.2015 15.0818 52.3304 14.9528 52.4593 14.8238L52.4593 14.8238C52.7815 14.5013 52.9104 14.0497 52.9104 13.5981ZM51.8151 10.8242C51.944 10.3726 52.2018 10.0501 52.524 9.72752C52.6529 10.0501 52.7173 10.3081 52.6529 10.5661C52.6529 10.6952 52.6529 10.8887 52.5885 11.0177C52.524 11.2112 52.4596 11.4048 52.3307 11.5983C52.2899 11.6391 52.2426 11.68 52.1929 11.7229C52.0858 11.8155 51.9676 11.9176 51.8795 12.0498C51.8151 11.8563 51.7506 11.5983 51.7506 11.3402C51.7506 11.1467 51.7506 10.9532 51.8151 10.8242ZM51.6217 10.3727C51.6861 10.1791 51.815 9.9856 51.9439 9.79208C52.0083 9.59855 52.0728 9.40502 52.0728 9.2115C52.0728 8.75993 51.9439 8.37288 51.6861 7.98583C51.4283 8.37288 51.235 8.75993 51.235 9.2115C51.235 9.59855 51.3639 9.9856 51.6217 10.3727ZM50.2681 7.79233C50.2036 7.66331 50.2036 7.46979 50.2036 7.34077C50.2036 7.01822 50.2681 6.76019 50.3325 6.50215C50.7192 6.8247 50.9126 7.21175 51.0414 7.5988C51.1059 7.79233 51.1059 7.92135 51.1059 8.05036V8.17938C51.0737 8.27614 51.0414 8.38903 51.0092 8.50192L51.0092 8.50196L51.0091 8.5022C50.9769 8.615 50.9447 8.72779 50.9126 8.82447C50.5903 8.50193 50.3325 8.17938 50.2681 7.79233ZM50.0108 8.11488C49.753 7.92135 49.4952 7.79233 49.2374 7.66332C48.8507 7.5343 48.3996 7.59881 48.0129 7.72782C48.2063 7.98586 48.4641 8.17939 48.7219 8.3084C49.173 8.2439 49.6886 8.2439 50.0752 8.37291H50.1397C50.0998 8.33305 50.0846 8.29318 50.0636 8.23808C50.0506 8.20403 50.0354 8.16416 50.0108 8.11488ZM48.9794 6.63112C48.8505 6.30857 48.7861 5.98603 48.7861 5.66348C48.7861 5.53447 48.7861 5.46996 48.8505 5.34094C49.2372 5.53447 49.5594 5.85701 49.7528 6.24406C49.8418 6.33314 49.8693 6.45296 49.8991 6.58231L49.8991 6.58235L49.8991 6.58238C49.9124 6.64036 49.9262 6.70025 49.9461 6.76014C49.8817 7.01817 49.8817 7.2117 49.8817 7.46973C49.495 7.27621 49.1728 7.01817 48.9794 6.63112ZM47.1103 5.79254C47.2392 6.2441 47.497 6.63115 47.8192 6.82468C48.1415 7.0182 48.5282 7.14722 48.9148 7.21173C48.8205 7.11728 48.7607 7.02283 48.6848 6.90307C48.6571 6.85924 48.6271 6.81202 48.5926 6.76017C48.5604 6.69566 48.5282 6.61501 48.4959 6.53437L48.4959 6.53424C48.4637 6.45365 48.4315 6.37308 48.3993 6.30861L48.2704 6.17959C48.0126 5.92155 47.6259 5.79254 47.1103 5.79254ZM42.9217 16.63C42.3417 16.63 42.0839 16.2429 42.0839 15.9204C42.0839 15.6623 42.3417 15.4043 42.5351 15.3398C42.7928 15.3398 42.9862 15.5978 42.9862 15.8559C42.9862 15.8881 42.9701 15.9204 42.954 15.9526C42.9379 15.9849 42.9217 16.0171 42.9217 16.0494C42.9217 16.0614 42.9195 16.0756 42.9171 16.0909C42.9067 16.1574 42.8933 16.2429 43.0506 16.2429H43.6951V8.05027C43.6951 6.95362 43.7595 5.59894 44.404 4.30876L44.5973 3.92171L44.7907 4.30876C45.4352 5.59894 45.4996 6.95362 45.4996 8.05027V16.2429H46.1441C46.3374 16.2429 46.3374 16.1139 46.273 16.0494C46.2085 15.9849 46.2085 15.9204 46.2085 15.8559C46.2085 15.5333 46.4663 15.3398 46.7241 15.3398C47.0463 15.3398 47.2397 15.5978 47.2397 15.8559C47.2397 16.2429 46.9819 16.5654 46.4019 16.5654H45.3063C45.4996 16.9525 45.564 17.5331 45.564 18.1137C45.564 18.8878 45.3707 19.5329 45.1774 19.9844C46.0152 19.8554 46.5952 19.6619 47.1752 19.3393H47.2397L47.3686 19.7264H47.3041C46.7885 20.0489 46.273 20.1779 45.6929 20.307C45.6929 20.307 45.3063 20.3715 44.984 20.436C45.0485 20.5005 45.1129 20.6295 45.1129 20.7585C45.1129 21.0166 44.9196 21.2101 44.6618 21.2101C44.404 21.2101 44.2107 21.0166 44.2107 20.7585C44.2107 20.6295 44.2751 20.5005 44.3396 20.436C44.0173 20.3715 43.5662 20.307 43.5662 20.307C43.4667 20.2738 43.371 20.2425 43.2781 20.2121C42.8295 20.0654 42.4466 19.9401 42.0195 19.7264H41.955L42.0839 19.4038H42.1484C42.7284 19.7264 43.3084 19.9199 44.1462 20.0489C43.8884 19.5974 43.7595 18.9523 43.7595 18.1782C43.7595 17.5976 43.8884 17.017 44.0173 16.63H42.9217ZM40.7301 16.8881C40.6012 16.6301 40.4078 16.4365 40.1501 16.243C40.0856 16.4365 40.0212 16.6301 40.0212 16.8236C40.0212 17.0171 40.0856 17.2752 40.1501 17.4687C40.2029 17.7331 40.3423 17.9108 40.4974 18.1084C40.5315 18.1518 40.5663 18.1963 40.6012 18.2428C40.6334 18.2428 40.6817 18.2589 40.7301 18.275C40.7784 18.2912 40.8267 18.3073 40.859 18.3073V18.2428C40.7301 17.8557 40.6656 17.4042 40.7301 16.8881ZM39.1194 8.88894C39.5061 8.69542 39.9572 8.63091 40.3439 8.69542C40.215 8.95345 40.0216 9.21149 39.8283 9.40501C39.3127 9.40501 38.8616 9.53403 38.4749 9.79207H38.4105C38.4749 9.66305 38.4749 9.59854 38.4749 9.46952C38.6038 9.21149 38.8616 9.01796 39.1194 8.88894ZM39.8926 15.8559C39.8282 15.5979 39.6348 15.3399 39.4415 15.0818L39.4415 15.0818C39.2481 15.4043 39.1193 15.7269 39.1193 16.1139V16.3075C39.1193 16.63 39.2481 16.8881 39.4415 17.1461C39.4737 17.1783 39.522 17.2106 39.5704 17.2428L39.5704 17.2429C39.6187 17.2751 39.6671 17.3074 39.6993 17.3396V17.2751C39.6348 16.759 39.6993 16.372 39.8926 15.8559ZM38.4996 15.6377C38.4508 15.4526 38.4105 15.2995 38.4105 15.1463V14.8883C38.4749 14.5012 38.6683 14.1142 38.9905 13.7916C39.1194 14.0497 39.2483 14.3077 39.2483 14.6303C38.9905 15.0173 38.8616 15.4689 38.7972 15.9204C38.7327 15.9204 38.7327 15.9849 38.7327 15.9849L38.5394 15.7914C38.5259 15.7376 38.5125 15.6865 38.4996 15.6377ZM38.9259 13.34C38.9903 13.211 38.9903 13.082 38.9903 12.953C38.9903 12.8885 38.9742 12.8078 38.9581 12.7272C38.942 12.6466 38.9259 12.5659 38.9259 12.5014C38.5392 12.7595 38.2814 13.0175 38.0881 13.4045C37.9592 13.6626 37.9592 13.9206 37.9592 14.1787V14.3077C38.0236 14.3722 38.0881 14.5012 38.0881 14.5657C38.0881 14.5657 38.1525 14.5657 38.1525 14.5012C38.2814 14.0496 38.5392 13.6626 38.9259 13.34ZM37.9592 11.2758V11.0178C38.0236 10.7597 38.217 10.4372 38.4103 10.3082C38.7326 10.0501 39.1192 9.9211 39.5704 9.8566C39.5059 10.1146 39.377 10.3727 39.1837 10.6307C38.7326 10.7597 38.3459 10.9532 38.0236 11.2758H37.9592ZM37.7654 12.6304C37.8298 12.6949 37.8298 12.8239 37.8298 12.9529H37.8943C38.152 12.5659 38.4743 12.2433 38.9254 12.0498C39.0543 11.7918 39.1187 11.4692 39.1187 11.1467C38.6676 11.2757 38.3454 11.5337 38.0876 11.8563C37.8943 12.0498 37.7654 12.3079 37.7654 12.6304ZM36.4122 13.5981C36.8633 13.7271 37.25 13.9207 37.5078 14.2432C37.7656 14.5658 37.8945 14.9528 37.8945 15.3399L37.3144 15.1463C37.25 15.0818 37.1694 15.0173 37.0889 14.9528C37.0083 14.8883 36.9278 14.8238 36.8633 14.7593C36.6055 14.4367 36.4766 14.0497 36.4122 13.5981ZM36.8635 15.4688C36.9924 15.9204 37.2502 16.3075 37.5724 16.5655C37.7013 16.6945 37.8946 16.759 38.088 16.8235C38.3457 16.8235 38.5391 16.8235 38.7324 16.888C38.5391 16.501 38.3457 16.1139 38.0235 15.9204C37.7657 15.5979 37.3146 15.4688 36.8635 15.4688ZM38.7321 18.1137C38.2809 17.9201 38.0232 17.6621 37.7654 17.2751C38.2165 17.146 38.6676 17.146 39.0543 17.3396C39.3765 17.4686 39.6988 17.7911 39.9566 18.1137C39.8599 18.1459 39.7471 18.1621 39.6343 18.1782C39.5215 18.1943 39.4088 18.2104 39.3121 18.2427C39.1187 18.2427 38.9254 18.1782 38.7321 18.1137ZM39.0549 18.7588C39.3771 19.0813 39.7638 19.2748 40.2149 19.3393C40.6016 19.4038 41.0528 19.2748 41.4394 19.1458C41.1172 18.8233 40.7305 18.6297 40.2794 18.5652C39.8927 18.4362 39.4416 18.5652 39.0549 18.7588ZM42.4058 19.0168V19.1459C41.9547 19.0168 41.6324 18.7588 41.4391 18.3718C41.2457 18.0492 41.1168 17.6622 41.1168 17.2751V17.1461C41.5035 17.3396 41.8258 17.5977 42.0835 17.9202C42.2769 18.2427 42.4058 18.6298 42.4058 19.0168ZM40.7303 6.76017C40.6658 6.88919 40.537 7.08271 40.4081 7.21173C40.7947 7.21173 41.1814 7.08271 41.5037 6.82468C41.8259 6.56664 42.0837 6.17959 42.277 5.79254C41.8259 5.79254 41.3748 5.92155 41.0525 6.17959L40.9236 6.30861C40.8914 6.37308 40.8592 6.45365 40.827 6.53424L40.827 6.53437C40.7947 6.61501 40.7625 6.69566 40.7303 6.76017ZM39.5056 7.46973C39.5056 7.2117 39.5056 7.01817 39.4411 6.76014C39.4733 6.66337 39.5056 6.58274 39.5378 6.5021C39.57 6.42146 39.6022 6.34083 39.6344 6.24406C39.8278 5.85701 40.15 5.53447 40.5367 5.34094C40.6011 5.46996 40.6011 5.53447 40.6011 5.66348C40.6011 5.98603 40.5367 6.30857 40.3434 6.63112C40.2145 6.95366 39.8922 7.27621 39.5056 7.46973ZM39.248 8.43736C39.7636 8.30834 40.2147 8.30834 40.6658 8.37285C40.9236 8.24383 41.1814 8.0503 41.3747 7.79227C40.9881 7.66325 40.5369 7.59874 40.1502 7.72776C39.828 7.79227 39.5702 7.92129 39.3769 8.17932C39.3371 8.21919 39.3218 8.25906 39.3008 8.31416C39.2878 8.34821 39.2726 8.38808 39.248 8.43736ZM38.2167 8.17938V8.05036C38.2167 7.98031 38.2252 7.91871 38.2329 7.8625V7.86246V7.86243V7.8624V7.86237V7.86233V7.8623V7.86227V7.86224C38.2465 7.76329 38.2578 7.68105 38.2167 7.5988C38.3456 7.14724 38.6034 6.8247 38.9256 6.50215C39.0545 6.76019 39.1189 7.08273 39.1189 7.34077C39.1189 7.46979 39.1189 7.66331 39.0545 7.79233C38.9256 8.17938 38.7323 8.50193 38.41 8.82447C38.41 8.63094 38.3456 8.37291 38.2167 8.17938ZM37.3148 9.2115C37.3148 9.40502 37.3792 9.59855 37.4437 9.79208L37.4437 9.79211C37.5726 9.98562 37.7015 10.1791 37.7659 10.3727C37.9593 10.0501 38.1526 9.66306 38.1526 9.2115C38.1526 8.82444 37.9593 8.37288 37.7659 7.98583C37.5081 8.37288 37.3148 8.75993 37.3148 9.2115ZM36.7348 11.0177C36.6704 10.8887 36.6704 10.7597 36.6704 10.5661C36.6704 10.3081 36.7348 9.98556 36.7992 9.72752C37.1215 10.0501 37.3793 10.4371 37.5082 10.8242C37.5726 11.0177 37.5726 11.1467 37.5726 11.3402C37.5726 11.5338 37.5082 11.7918 37.4437 12.0498L37.4437 12.0498C37.3148 11.8563 37.1859 11.7273 36.9926 11.5983C36.8637 11.4048 36.7992 11.2112 36.7348 11.0177ZM36.3478 11.9208C36.3478 12.2434 36.4123 12.6304 36.6056 12.8885C36.6701 13.082 36.799 13.211 36.9923 13.34C37.1856 13.4045 37.379 13.5336 37.5723 13.6626V13.4045C37.5723 13.082 37.5079 12.7595 37.3145 12.4369C37.1212 12.0499 36.799 11.7273 36.3478 11.5338V11.9208ZM22.4276 16.5655C21.7187 16.5655 21.1387 16.6946 20.6875 17.0171V6.17961V5.79256C21.0098 5.53452 21.5253 5.21198 22.492 5.21198C23.1365 5.14747 23.9099 5.341 24.6832 5.53452C24.8047 5.56059 24.9274 5.58782 25.0511 5.61528C25.8459 5.79171 26.6824 5.9774 27.5189 5.92158V6.17961V17.3396C26.707 17.3977 25.8429 17.1946 25.0675 17.0123C24.9812 16.992 24.896 16.972 24.8121 16.9526C23.9743 16.6946 23.2009 16.5655 22.4276 16.5655ZM13.4052 17.275C14.3075 17.3395 15.2097 17.146 16.112 16.888L16.2915 16.8464C17.0609 16.6677 17.7787 16.5009 18.4965 16.5009C19.2054 16.5009 19.7854 16.6944 20.2366 16.9525V6.1795V5.79245C19.9143 5.4699 19.3988 5.21187 18.4321 5.21187C17.7232 5.21187 17.0142 5.34089 16.2409 5.53441C15.3386 5.79245 14.4364 5.98597 13.4052 5.92146V6.1795V17.275ZM19.4632 19.0813H11.6651V6.1795H12.6318L12.5674 6.43754V6.50205V18.1782H19.8498C19.9787 18.3717 20.1076 18.4362 20.4299 18.4362C20.8165 18.4362 20.9454 18.3717 21.0743 18.1782H28.2923V6.50205V6.43754L28.2279 6.1795H28.9368H29.1946V19.0813H21.3965C21.2677 19.4038 20.881 19.6619 20.4299 19.6619C19.9787 19.6619 19.6565 19.4038 19.4632 19.0813ZM14.5007 44.9494L32.868 28.4351L51.2997 45.0139C52.5242 42.6915 53.362 40.4337 54.0709 38.3049L32.868 19.2103L11.7295 38.2404C12.374 40.3692 13.2762 42.627 14.5007 44.9494ZM19.5276 13.9206C19.2698 13.7916 18.8831 13.7271 18.432 13.7271C17.9458 13.7271 17.4596 13.8181 16.9318 13.917L16.9318 13.917C16.69 13.9622 16.4396 14.0091 16.1764 14.0497C15.9401 14.0927 15.7038 14.1428 15.4675 14.193C14.9948 14.2934 14.5222 14.3937 14.0496 14.4367V13.9206C14.7585 13.8561 15.403 13.7271 16.0475 13.5336L16.2269 13.492C16.9963 13.3133 17.7142 13.1465 18.432 13.1465C18.5562 13.1673 18.6804 13.1813 18.8025 13.1951L18.8025 13.1951C19.0604 13.2244 19.3089 13.2525 19.5276 13.3401V13.9206ZM18.432 15.0818C18.8831 15.0818 19.2698 15.1463 19.5276 15.2753V14.6947C19.2054 14.5657 18.8187 14.5012 18.432 14.5012C17.7142 14.5012 16.9963 14.6679 16.2269 14.8466L16.0475 14.8883C15.403 15.0818 14.7585 15.2108 14.0496 15.2753V15.7914C14.5222 15.7484 14.9948 15.648 15.4675 15.5477C15.7038 15.4975 15.9401 15.4473 16.1764 15.4043C16.2643 15.384 16.3508 15.3637 16.4361 15.3437C17.163 15.173 17.7975 15.024 18.432 15.0818ZM19.3863 7.3035C19.1374 7.23636 18.807 7.14724 18.432 7.14724C17.7231 7.14724 17.0142 7.27626 16.1764 7.46978C15.4675 7.66331 14.7585 7.79233 14.0496 7.85684V7.34076C14.7585 7.27626 15.403 7.14724 16.0475 6.95371L16.227 6.9121C16.9963 6.73339 17.7142 6.56666 18.432 6.56666C18.5562 6.58738 18.6804 6.60144 18.8024 6.61526L18.8024 6.61526L18.8025 6.61526L18.8025 6.61527C19.0604 6.64448 19.3089 6.67261 19.5276 6.76018V7.34076C19.4841 7.32988 19.4369 7.31716 19.3864 7.30353L19.3863 7.3035ZM24.6832 10.1791C25.3276 10.3726 26.0365 10.5017 26.8099 10.5662V10.0501C26.1654 9.98559 25.4565 9.85657 24.812 9.66304L24.6326 9.62143C23.8632 9.44272 23.1454 9.27599 22.4275 9.27599C22.0408 9.27599 21.6542 9.3405 21.3319 9.46951V10.0501C21.5897 9.92108 21.9764 9.85657 22.4275 9.85657C23.1364 9.72755 23.9098 9.92108 24.6832 10.1791ZM26.8099 7.92128C26.0365 7.85677 25.3276 7.72775 24.6832 7.53422C23.9098 7.27619 23.1364 7.14717 22.4275 7.21168C21.9764 7.21168 21.5897 7.27619 21.3319 7.40521V6.82463C21.6542 6.69561 22.0408 6.6311 22.4275 6.6311C23.1454 6.6311 23.8632 6.79784 24.6326 6.97654L24.812 7.01815C25.4565 7.21168 26.1654 7.3407 26.8099 7.40521V7.92128ZM24.6831 12.7596C24.8395 12.7909 25.0034 12.826 25.1722 12.8621C25.6991 12.9749 26.2729 13.0978 26.8098 13.1466V12.6305C26.1009 12.566 25.4564 12.437 24.812 12.2435L24.6187 12.1987C23.8549 12.0212 23.146 11.8564 22.4919 11.8564C22.1052 11.8564 21.7185 11.9209 21.3963 11.9855V12.566C21.6541 12.437 22.0408 12.3725 22.4919 12.3725C23.1364 12.3725 23.9097 12.566 24.6831 12.7596ZM26.8099 9.2115C26.0365 9.14699 25.3276 9.01797 24.6832 8.82445C23.9098 8.63092 23.1364 8.43739 22.4275 8.5019C21.9764 8.5019 21.5897 8.56641 21.3319 8.69543V8.11485C21.6542 7.98583 22.0408 7.92132 22.4275 7.92132C23.1454 7.92132 23.8632 8.08806 24.6326 8.26676L24.812 8.30838C25.4565 8.5019 26.1654 8.63092 26.8099 8.69543V9.2115ZM24.6832 14.1142C25.3276 14.3077 26.0365 14.4367 26.8099 14.5012V13.9851C26.3614 13.9403 25.8818 13.8329 25.4143 13.7283C25.21 13.6825 25.008 13.6373 24.812 13.5981L24.6326 13.5565C23.8632 13.3778 23.1454 13.211 22.4275 13.211C22.0408 13.211 21.6542 13.2755 21.3319 13.4046V13.9851C21.5897 13.8561 21.9764 13.7916 22.4275 13.7916C23.1364 13.7271 23.9098 13.9206 24.6832 14.1142ZM26.8099 15.7914C26.0365 15.7269 25.3276 15.5979 24.6832 15.4043C23.9098 15.2108 23.1364 15.0173 22.4275 15.0818C21.9764 15.0818 21.5897 15.1463 21.3319 15.2753V14.6947C21.6542 14.5657 22.0408 14.5012 22.4275 14.5012C23.1454 14.5012 23.8632 14.6679 24.6326 14.8466L24.812 14.8883C25.4565 15.0818 26.1654 15.2108 26.8099 15.2753V15.7914ZM65.8 42.8207L65.6711 43.1432C64.4466 47.2073 62.3843 51.2713 60.9021 53.9162L60.5798 54.4323L58.4531 52.497C58.4209 52.5615 58.3726 52.6421 58.3243 52.7227L58.3242 52.7228C58.2759 52.8034 58.2275 52.8841 58.1953 52.9486C52.7818 61.5928 45.1771 67.8501 36.0901 71.2046L32.8678 72.3657L29.6454 71.2046C20.6229 67.9146 12.9538 61.5928 7.6047 52.9486C7.58949 52.9181 7.57429 52.8841 7.55823 52.8482L7.55821 52.8481C7.50623 52.7318 7.44538 52.5956 7.34692 52.497L5.15573 54.4323L4.8335 53.8517C3.35122 51.1423 1.35338 47.0783 0.0644466 43.0787L0 42.8207L5.22018 38.1115L5.86464 37.531L6.12243 38.3051C6.38021 39.2727 6.70244 40.1758 7.02467 41.0789L7.02468 41.0789L8.50695 39.7243L9.08697 39.2082L9.34476 39.9823C10.4404 43.2722 11.9226 46.3687 13.6627 49.1426C18.2384 56.4321 24.6186 61.7218 32.1589 64.4957C32.1589 64.4957 32.6744 64.6892 32.9322 64.7537C33.19 64.6892 33.7056 64.4957 33.7056 64.4957C41.2458 61.7218 47.6905 56.4321 52.2018 49.1426C53.9418 46.3687 55.4241 43.2722 56.5197 39.9823L56.7775 39.2082L58.8398 41.0789L58.8398 41.0788C59.162 40.1757 59.4843 39.2726 59.742 38.3051L59.9998 37.531L65.8 42.8207ZM3.35119 44.4333L4.31789 50.5617C3.15785 48.3039 2.06226 45.7235 1.22445 43.1432C1.44892 42.9185 2.5204 41.9547 3.54375 41.0341L3.54384 41.0341L3.54386 41.034L3.5444 41.0336L3.54542 41.0326L3.54826 41.0301C4.28614 40.3663 4.9983 39.7257 5.34903 39.4017C5.60682 40.2403 5.86461 41.0789 6.18684 41.853L3.35119 44.4333ZM6.83104 51.5939C6.18658 50.4972 5.54211 49.336 5.02654 48.1749L5.73545 52.626C5.92879 52.368 6.37992 51.9809 6.83104 51.5939ZM58.9686 51.5939C59.6131 50.4972 60.2575 49.336 60.7731 48.1749L60.0642 52.626L60.0641 52.6259C59.8063 52.3679 59.4197 51.9809 58.9686 51.5939ZM61.16 44.6268C60.7089 44.2398 57.9377 41.7239 57.1643 41.0143C56.0687 44.1108 54.7153 47.0782 53.0397 49.723C48.3996 57.2061 41.826 62.6248 34.028 65.5277L32.8679 65.9148L31.7723 65.5277C23.9743 62.6893 17.4652 57.2061 12.7606 49.723C11.085 47.0782 9.73159 44.1108 8.636 41.0143C8.13498 41.4387 6.96557 42.509 6.00989 43.3837L6.00973 43.3839L6.00934 43.3842C5.36717 43.972 4.8216 44.4713 4.64031 44.6268C5.67146 47.3362 7.02483 49.9811 8.50711 52.3679C13.7917 60.8186 21.2675 66.9469 30.0967 70.1724C30.0967 70.1724 32.6746 71.0755 32.9324 71.2045C33.2546 71.0755 35.8325 70.1724 35.8325 70.1724C44.6617 66.9469 52.1375 60.7541 57.4221 52.3679C58.7755 50.0456 60.1288 47.4007 61.16 44.6268ZM62.2559 40.9695C63.2793 41.89 64.3509 42.8539 64.5753 43.0786C63.7375 45.7235 62.5775 48.3038 61.4819 50.5616L62.4486 44.3688L59.613 41.7884C59.9352 41.0143 60.193 40.1757 60.4508 39.3371C60.8022 39.6618 61.5165 40.3043 62.2559 40.9695ZM9.02235 50.9487L9.0868 51.2068L8.89346 51.3358C8.81023 51.2108 8.75387 51.0858 8.68968 50.9435C8.65446 50.8654 8.61689 50.7821 8.57123 50.6907C8.44233 50.4972 8.31344 50.3036 8.18455 50.0456L8.37789 49.9811L8.57123 50.1746C8.61687 50.1289 8.66969 50.0796 8.72546 50.0276C8.90593 49.8593 9.11723 49.6621 9.21569 49.465L8.76457 48.6264L7.86231 48.8199L7.92676 49.078L7.79787 49.1425C7.76564 49.0457 7.71731 48.9651 7.66897 48.8844C7.62064 48.8038 7.5723 48.7232 7.54008 48.6264C7.47563 48.4974 7.41119 48.3684 7.28229 48.1748L7.47563 48.1103L7.66897 48.3039C8.1613 48.3039 9.06733 48.1533 9.84117 48.0247C10.0803 47.9849 10.3068 47.9473 10.5046 47.9168C10.5927 48.0491 10.7109 48.1512 10.818 48.2438C10.8677 48.2867 10.9149 48.3275 10.9558 48.3684L11.0202 48.6264L10.1824 49.6585C9.90975 49.9314 9.61357 50.275 9.37921 50.5469C9.22578 50.7249 9.09885 50.8722 9.02235 50.9487ZM10.3104 48.3683L9.53755 49.2064L9.15115 48.6262L10.3104 48.3683ZM14.2427 53.9807L14.3716 53.8517C14.2773 53.7572 14.2174 53.6628 14.1416 53.543L14.1416 53.543C14.1138 53.4992 14.0839 53.452 14.0494 53.4001C13.9849 53.3356 13.9366 53.255 13.8883 53.1743C13.8399 53.0937 13.7916 53.0131 13.7271 52.9485L13.5338 53.0776L13.6627 53.3356C13.2116 53.6581 12.1804 54.4968 12.1804 54.4968C12.4382 53.7226 12.7604 52.8195 13.0827 52.0454C13.0182 51.9809 12.9699 51.9164 12.9216 51.8519C12.8732 51.7874 12.8249 51.7229 12.7604 51.6584C12.7282 51.5939 12.6799 51.5293 12.6315 51.4648L12.6315 51.4648C12.5832 51.4003 12.5349 51.3358 12.5027 51.2713L12.3738 51.4003L12.5027 51.6584C12.3497 51.8115 12.1967 51.9242 12.0118 52.0605L12.0117 52.0605C11.963 52.0965 11.912 52.1341 11.8582 52.1744L11.1493 52.6905C10.8915 52.884 10.6982 53.0131 10.4404 53.1421L10.247 52.9485L10.1181 53.0776C10.2125 53.172 10.2723 53.2665 10.3482 53.3862C10.3759 53.43 10.4058 53.4773 10.4404 53.5291C10.5048 53.5936 10.5531 53.6743 10.6015 53.7549C10.6498 53.8355 10.6982 53.9162 10.7626 53.9807L10.8915 53.8517L10.6982 53.5291C10.9988 53.3142 11.3567 53.0419 11.7146 52.7697L11.715 52.7693L11.7153 52.7691C11.8942 52.633 12.0731 52.4969 12.2449 52.368C12.0287 52.8873 11.8416 53.4356 11.6445 54.0129L11.6445 54.013L11.6444 54.0131C11.5477 54.2963 11.4487 54.5866 11.3426 54.8838C11.3748 54.9161 11.4071 54.9644 11.4393 55.0128C11.4715 55.0612 11.5037 55.1096 11.536 55.1418C11.5682 55.1741 11.6004 55.2225 11.6326 55.2709C11.6649 55.3192 11.6971 55.3676 11.7293 55.3999C11.8253 55.3278 11.9212 55.2468 12.0239 55.1602C12.1969 55.0142 12.3888 54.8523 12.6316 54.6903L13.3405 54.1742C13.5023 54.0527 13.6641 53.9567 13.81 53.8701C13.8965 53.8187 13.9774 53.7707 14.0494 53.7226L14.2427 53.9807ZM14.4364 58.5609C13.8564 57.9803 13.7919 57.0127 14.5009 56.3676C15.2098 55.7225 16.2409 55.8515 16.9498 56.6901C17.2076 57.0127 17.4009 57.2707 17.5298 57.6577C17.3737 57.7098 17.1756 57.846 17.0033 57.9645C16.9622 57.9927 16.9226 58.02 16.8854 58.0448L16.7565 57.8513L16.8854 57.5932C16.8854 57.3352 16.7565 57.0772 16.5631 56.8836C16.2409 56.4966 15.6609 56.3031 15.1453 56.8191C14.6297 57.3352 14.6297 57.9803 15.0809 58.4319C15.2742 58.6899 15.5964 58.8189 15.9831 58.8834L15.9187 59.2705C15.2098 59.206 14.8231 58.9479 14.4364 58.5609ZM20.7516 62.3023C20.1715 63.0119 19.2693 63.0764 18.367 62.3668C17.5292 61.6572 17.4003 60.8186 18.0448 59.98C18.6248 59.2704 19.5915 59.2059 20.4293 59.9155C21.2671 60.6251 21.396 61.5282 20.7516 62.3023ZM18.6249 60.5606C19.076 60.109 19.656 59.9155 20.1072 60.3025C20.5583 60.6251 20.4938 61.2702 20.1072 61.7863C19.656 62.2378 19.076 62.4313 18.6249 62.0443C18.1738 61.6572 18.1738 61.0767 18.6249 60.5606ZM25.2629 64.4311C25.0696 64.8182 24.6185 64.8827 24.1674 64.6892C24.1941 64.8233 24.2321 65.0912 24.2719 65.3725L24.2719 65.3726C24.3279 65.7677 24.3875 66.1889 24.4251 66.3019L24.4896 66.4309L24.3607 66.6244C24.1655 66.4779 23.9333 66.3683 23.7201 66.2677L23.7199 66.2676C23.6517 66.2355 23.5854 66.2042 23.5229 66.1729C23.5229 65.6568 23.4584 64.8827 23.394 64.4311L23.2007 64.3021L23.0718 64.5602C22.8784 64.8182 22.7495 65.0762 22.6851 65.2698L22.8784 65.4633L22.7495 65.6568L22.1695 65.2698C21.9762 65.1407 21.7828 65.0117 21.525 64.8827L21.6539 64.6892L21.9117 64.8182C22.0323 64.6975 22.1277 64.5518 22.2294 64.3967L22.2294 64.3966C22.2908 64.3029 22.3545 64.2057 22.4273 64.1086L22.8784 63.3345C22.9997 63.1726 23.0956 63.0107 23.1821 62.8648L23.1822 62.8647L23.1822 62.8646L23.1823 62.8645L23.1824 62.8643C23.2336 62.7778 23.2816 62.6969 23.3295 62.6249L23.1362 62.4314L23.2651 62.2378C23.3295 62.3023 23.4101 62.3507 23.4907 62.3991C23.5712 62.4475 23.6518 62.4959 23.7162 62.5604C23.8129 62.6249 23.9096 62.6733 24.0062 62.7217C24.1029 62.77 24.1996 62.8184 24.2962 62.8829C24.3929 62.9474 24.4896 62.9958 24.5863 63.0442C24.6829 63.0926 24.7796 63.141 24.8763 63.2055C25.5207 63.5925 25.5207 64.0441 25.2629 64.4311ZM24.0235 63.191C24.0951 63.2197 24.1667 63.2483 24.2955 63.3343C24.6175 63.5277 24.6819 63.7211 24.5531 63.9789C24.3599 64.3012 24.0378 64.3012 23.6514 64.0434L23.4582 63.85L23.587 63.6566C23.7158 63.4632 23.8446 63.2698 23.909 63.1409C23.952 63.1624 23.9878 63.1767 24.0235 63.191ZM29.1945 66.8179C29.1301 67.3985 29.0656 68.2371 29.0656 68.5596L29.2589 68.6887L29.1945 68.8822C29.0978 68.8177 28.985 68.7693 28.8723 68.7209C28.7595 68.6725 28.6467 68.6242 28.55 68.5596C28.394 68.4555 28.1961 68.3934 28.0238 68.3394L28.0237 68.3394L28.0236 68.3393C27.9824 68.3265 27.9428 68.314 27.9056 68.3016L27.97 68.1081L28.2278 68.1726C28.2922 67.9146 28.3567 67.5275 28.3567 67.2695L27.4544 66.8824L26.8744 67.592L27.0678 67.721L27.0033 67.9146C26.8685 67.8696 26.7337 67.7932 26.6207 67.7293C26.5717 67.7015 26.5268 67.676 26.4877 67.6565C26.4233 67.6243 26.3428 67.592 26.2622 67.5598C26.1816 67.5275 26.1011 67.4953 26.0366 67.463L26.1011 67.2695L26.3589 67.334C26.8744 66.9469 27.7767 65.9793 28.4211 65.2697C28.5394 65.2993 28.644 65.3153 28.7414 65.3302C28.8563 65.3478 28.9609 65.3638 29.0656 65.3987L29.3234 65.5922L29.1945 66.8179ZM27.7767 66.5593L28.5495 65.6568L28.4207 66.8816L27.7767 66.5593ZM38.0233 67.9146C37.9803 67.8285 37.9373 67.7497 37.8944 67.6708C37.8084 67.5132 37.7225 67.3555 37.6366 67.1404L37.3143 66.3663C37.2639 66.2401 37.2134 66.1336 37.1668 66.0352C37.0944 65.8824 37.0313 65.7493 36.9921 65.5922L37.2499 65.4632L37.1855 65.2697C37.0888 65.3342 36.976 65.3826 36.8632 65.431C36.7504 65.4793 36.6376 65.5277 36.541 65.5922C36.4443 65.6245 36.3315 65.6729 36.2187 65.7213C36.1059 65.7696 35.9932 65.818 35.8965 65.8503L35.961 66.0438L36.2188 65.9793C36.2617 66.0653 36.3047 66.1442 36.3477 66.223C36.4336 66.3807 36.5195 66.5384 36.6054 66.7534L36.9277 67.5275C36.9466 67.5749 36.9641 67.6195 36.9807 67.6619L37.0199 67.7627L37.02 67.7629C37.0958 67.9585 37.1556 68.1128 37.2499 68.3016L36.9921 68.4306L37.0566 68.6242C37.1532 68.5596 37.266 68.5113 37.3788 68.4629C37.4916 68.4145 37.6044 68.3661 37.701 68.3016C37.7977 68.2694 37.9105 68.221 38.0233 68.1726C38.136 68.1242 38.2488 68.0758 38.3455 68.0436L38.281 67.85L38.0233 67.9146ZM43.4653 64.8001C43.5012 64.8522 43.5352 64.9014 43.5657 64.9471H43.759L43.8234 65.1407C43.7268 65.2052 43.614 65.2697 43.5013 65.3342L43.5012 65.3342C43.3884 65.3987 43.2756 65.4632 43.179 65.5277L42.599 65.9148L42.5345 65.7212L42.7279 65.5277C42.6849 65.4417 42.6491 65.3557 42.6133 65.2697C42.5417 65.0977 42.4701 64.9256 42.3412 64.7536L42.0834 64.3021C41.9608 64.0567 41.8382 63.8632 41.7485 63.7215L41.7485 63.7215L41.7484 63.7213L41.7484 63.7212C41.6966 63.6395 41.6558 63.5751 41.6323 63.5279L42.1478 66.1083L41.7612 66.3663C41.6495 66.2545 41.4652 66.1064 41.2031 65.8958C40.8603 65.6202 40.3842 65.2375 39.7633 64.6891C39.7869 64.7363 39.8278 64.8008 39.8796 64.8826C39.9693 65.0243 40.0919 65.2178 40.2144 65.4632L40.4722 65.9148C40.5707 66.1119 40.7068 66.309 40.823 66.4774C40.8589 66.5294 40.8929 66.5787 40.9233 66.6244L41.1811 66.4954L41.31 66.6889C41.2456 66.7211 41.165 66.7695 41.0845 66.8179C41.0039 66.8663 40.9233 66.9147 40.8589 66.9469C40.7944 66.9792 40.7139 67.0275 40.6333 67.0759C40.5528 67.1243 40.4722 67.1727 40.4078 67.2049L40.2789 67.0114L40.4722 66.8179C40.3973 66.6303 40.1262 66.1592 39.8744 65.7216C39.6932 65.4067 39.522 65.1091 39.4411 64.9471L39.2477 64.5601L38.9899 64.6246L38.8611 64.4311C38.9577 64.3666 39.0544 64.3182 39.1511 64.2698C39.2477 64.2214 39.3444 64.173 39.4411 64.1085C39.57 64.044 39.7633 63.915 39.9566 63.786C40.182 64.0679 41.0968 64.7936 41.5388 65.1441L41.5388 65.1441C41.6024 65.1946 41.6562 65.2372 41.6967 65.2697C41.6806 65.1891 41.6524 65.0319 41.6172 64.8354L41.6172 64.8353C41.5114 64.2456 41.3422 63.3022 41.2456 63.0119C41.3422 62.9474 41.4389 62.899 41.5356 62.8506C41.6323 62.8022 41.7289 62.7538 41.8256 62.6893C41.9545 62.6248 42.1478 62.4958 42.3411 62.3669L42.3412 62.3668L42.4701 62.5603L42.2767 62.7538C42.3412 62.9474 42.4701 63.2054 42.6634 63.4634L43.1145 64.2375C43.213 64.4347 43.3491 64.6318 43.4653 64.8001ZM46.5307 62.6894C46.3374 62.4958 46.144 62.3023 45.9507 62.0443L45.564 61.5282C45.3707 61.3347 45.1773 61.0766 45.0484 60.8186C45.0679 60.7991 45.0875 60.7737 45.1087 60.7459L45.1088 60.7459C45.1578 60.6819 45.2164 60.6056 45.3062 60.5606C45.6285 60.3025 45.8862 60.367 46.0796 60.5606C46.2729 60.8186 46.3374 61.1412 46.0151 61.3347C45.9507 61.3992 45.8862 61.4637 45.8218 61.4637L45.9507 61.8507C46.0151 61.8185 46.0795 61.7702 46.1439 61.7218L46.1439 61.7218L46.1439 61.7218L46.144 61.7218L46.144 61.7218L46.144 61.7217C46.2085 61.6734 46.2729 61.625 46.3374 61.5927C46.9818 61.0766 46.9818 60.4316 46.6596 59.98C46.3374 59.5929 45.8218 59.5284 45.3062 59.98C45.1773 60.109 45.0484 60.238 44.8551 60.367C44.7487 60.4736 44.6422 60.5606 44.5465 60.6388C44.4684 60.7026 44.3975 60.7606 44.3395 60.8186C44.2106 60.9476 44.0173 61.0766 43.824 61.2057L43.9528 61.3347L44.2106 61.2057C44.404 61.3992 44.5973 61.5927 44.7907 61.8507L45.3062 62.5603C45.3949 62.6787 45.4836 62.7835 45.566 62.8809L45.566 62.8809L45.5661 62.881L45.5663 62.8812L45.5663 62.8813L45.5664 62.8813C45.6636 62.9961 45.7521 63.1008 45.8218 63.2054L45.6285 63.399L45.7574 63.528C45.854 63.4635 45.9507 63.3828 46.0474 63.3022C46.144 63.2216 46.2407 63.1409 46.3374 63.0764C46.5307 62.9474 46.7241 62.8184 46.9818 62.5603L46.853 62.4313L46.5307 62.6894ZM51.7508 58.1737L51.6219 58.0447L51.2997 58.1737C51.0419 58.1092 50.2686 57.7867 49.753 57.5286L48.593 57.0126L48.3352 57.1416C48.2707 57.3351 48.1418 57.5286 48.0129 57.7222C48.1427 58.0036 48.3015 58.3286 48.4625 58.6582L48.4626 58.6583L48.4626 58.6584C48.7814 59.3109 49.109 59.9813 49.2374 60.367L49.1085 60.5606L49.2374 60.6896C49.3019 60.5606 49.4308 60.4315 49.5597 60.3025L49.9463 59.9155L49.8174 59.7864L49.6241 59.9155L49.173 59.1414L49.8819 58.4318C50.1397 58.5608 50.5264 58.7543 50.7197 58.8833L50.5908 59.0768L50.7197 59.2059C50.846 59.1216 50.9448 59.0098 51.052 58.8884L51.0521 58.8884L51.0521 58.8883C51.109 58.8239 51.1683 58.7569 51.2353 58.6898C51.3023 58.6227 51.3616 58.5556 51.4185 58.4912L51.4185 58.4912C51.5257 58.3698 51.6245 58.258 51.7508 58.1737ZM49.6234 58.2379L48.5286 57.7222L49.1082 58.7536L49.6234 58.2379ZM54.5219 54.7547C54.6508 54.4967 54.8442 54.2387 55.0375 53.9806L54.9086 53.8516L54.6508 53.9161C54.5665 53.9161 54.3103 53.9284 54.0215 53.9423L54.0213 53.9423L54.0208 53.9423L54.0202 53.9423L54.0196 53.9424L54.0189 53.9424L54.0181 53.9424C53.646 53.9603 53.2207 53.9806 53.0397 53.9806C53.233 53.5936 53.1686 53.142 52.8463 52.884C52.5241 52.6259 52.073 52.5614 51.5574 53.271C51.493 53.3677 51.4286 53.4483 51.3642 53.5289L51.3641 53.5291C51.2996 53.6097 51.2352 53.6903 51.1707 53.7871C51.1063 53.8839 51.0418 53.9645 50.9774 54.0451C50.9129 54.1258 50.8485 54.2064 50.784 54.3032C50.7196 54.4967 50.5907 54.6257 50.4618 54.7547L50.6552 54.8838L50.8485 54.6902C50.9774 54.787 51.0902 54.8676 51.2029 54.9483C51.3157 55.0289 51.4285 55.1095 51.5574 55.2063L52.2663 55.7224C52.3201 55.7627 52.3711 55.8003 52.4199 55.8363C52.6048 55.9725 52.7578 56.0853 52.9108 56.2384L52.7819 56.4965L52.9752 56.6255C53.1686 56.432 53.2975 56.2384 53.4264 56.0449C53.4908 55.9482 53.5714 55.8514 53.6519 55.7546C53.7325 55.6579 53.813 55.5611 53.8775 55.4643L53.6841 55.3353L53.4908 55.5288C53.233 55.3998 53.0397 55.2708 52.7819 55.0773L52.5886 54.8838L52.7174 54.6902C52.9289 54.6902 53.211 54.7044 53.5109 54.7195H53.511C53.851 54.7365 54.2138 54.7547 54.5219 54.7547ZM52.5235 53.5935C52.3303 53.4001 52.0727 53.4646 51.8795 53.7869C51.804 53.8624 51.7507 53.938 51.7065 54.0005L51.7065 54.0005C51.6752 54.0448 51.6486 54.0825 51.6219 54.1092C51.6752 54.1359 51.7286 54.1848 51.7911 54.242C51.8795 54.3228 51.9862 54.4205 52.1371 54.496L52.3303 54.6249L52.5235 54.4315C52.7811 54.1092 52.7811 53.8514 52.5235 53.5935ZM54.8444 51.5938C55.6822 52.1099 56.52 51.8519 57.1 50.8842C57.6801 49.9166 57.4223 48.949 56.6489 48.5619C55.7467 48.0458 54.9733 48.3039 54.3933 49.2715C53.8133 50.2391 54.0711 51.1423 54.8444 51.5938ZM56.1974 49.2715C55.6174 48.949 55.0374 49.0135 54.7152 49.465C54.3929 49.9811 54.6507 50.4972 55.2307 50.8842C55.8107 51.2068 56.3908 51.1423 56.713 50.6907C57.0352 50.1746 56.7774 49.5941 56.1974 49.2715ZM32.2232 68.2366C32.2232 67.8498 32.5452 67.5275 32.8672 67.5275C33.2536 67.5275 33.5756 67.8498 33.5756 68.2366C33.5756 68.6234 33.2536 68.9457 32.8672 68.9457C32.5452 68.9457 32.2232 68.6234 32.2232 68.2366ZM7.73319 46.0451C8.1196 46.0451 8.4416 45.7228 8.4416 45.4005C8.4416 45.0137 8.1196 44.6914 7.73319 44.6914C7.34679 44.6914 7.08918 45.0137 7.08918 45.4005C7.08918 45.7228 7.41119 46.0451 7.73319 46.0451ZM58.839 45.4005C58.839 45.7228 58.517 46.0451 58.1306 46.0451C57.7442 46.0451 57.4222 45.7228 57.4866 45.4005C57.4866 45.0137 57.8086 44.6914 58.1306 44.6914C58.517 44.6914 58.839 45.0137 58.839 45.4005Z" fill="black"/>
</svg>
